<svg id="Layer_1" data-name="Layer 1" xmlns="http://www.w3.org/2000/svg" viewBox="0 0 374.25 331.6"><defs><style>.cls-1{isolation:isolate;font-size:57.1px;fill:#d5536e;font-family:SairaStencilOne-Regular, Saira Stencil One;}.cls-2{fill:#fff;}</style></defs><text class="cls-1" transform="translate(135.03 222.76)"> </text><path class="cls-2" d="M8.25,352.18a9.76,9.76,0,0,1-5.47-3.59,12.11,12.11,0,0,1-2-5.79C.52,340.45.38,337,.38,332.3V307.93h13v27c0,1.6.05,3.16.14,4.62a6,6,0,0,0,.6,2.54,2.09,2.09,0,0,0,1.55,1,13.14,13.14,0,0,0,3.14.25h1.51a5.78,5.78,0,0,0,1.16-.14v10a8.49,8.49,0,0,1-1.3.07H18.85A37.81,37.81,0,0,1,8.25,352.18Zm16-44.22h13v24.36c0,4.26-.09,7.49-.25,9.66a14.14,14.14,0,0,1-1.44,5.47,8.91,8.91,0,0,1-4,3.91,19.7,19.7,0,0,1-7.37,1.76Z" transform="translate(-0.38 -21.7)"/><path class="cls-2" d="M65.64,339.55a6.82,6.82,0,0,0-.21-2,1.38,1.38,0,0,0-.64-.84,5,5,0,0,0-1.56-.37l-8-1c-4.73-.53-7.91-2.06-9.58-4.62a9.77,9.77,0,0,1-1.49-4,36.74,36.74,0,0,1-.39-5.74q0-7.25,3.71-10.43c2-1.74,5.12-2.75,9.38-3.07v13.09a11.72,11.72,0,0,0,.07,1.44,2.76,2.76,0,0,0,.25.92,1.13,1.13,0,0,0,.64.55,5.31,5.31,0,0,0,1.37.22l9,1.1a25,25,0,0,1,4.56,1,7.62,7.62,0,0,1,3,1.83c1.94,2,2.92,5.67,2.92,10.89q0,8.26-3.63,11.6a9.9,9.9,0,0,1-3.94,2.17,23.37,23.37,0,0,1-5.44.87V339.55ZM50.08,352.71c-2.22-.21-3.89-.43-5-.64v-9.52c2.56.21,5.49.44,8.78.64,2.08.09,3.57.14,4.44.14a38.28,38.28,0,0,0,4.62-.18v10.16H62.2A116.88,116.88,0,0,1,50.08,352.71Zm18.76-35.19c-2-.09-3.62-.14-4.83-.14-1.56,0-3,.05-4.44.14V307.43H61.2a88.64,88.64,0,0,1,11.07.71c1.21.18,2.59.41,4.1.71v9.38C75,318.07,72.43,317.84,68.84,317.52Z" transform="translate(-0.38 -21.7)"/><path class="cls-2" d="M95.54,308h1.1l5.15,17.84-7.49,27h-13Zm14.67,36.86H99.31l2.75-10h5.22L99.59,308h11.92l14.28,44.82h-13.3Z" transform="translate(-0.38 -21.7)"/><path class="cls-2" d="M147.06,309.9V308h12l18.77,39.88-2.16,4.94H167.2Zm0,6.45,12,25.54v10.89h-12ZM183.88,334h-.25l-4.37,10.55-5.61-12,10.23-24.58h12.38v44.83H183.88Z" transform="translate(-0.38 -21.7)"/><path class="cls-2" d="M214.88,308H216l5.15,17.84-7.48,27H200.6Zm14.67,36.86H218.66l2.74-10h5.22L218.93,308h11.92l14.28,44.82h-13.3Z" transform="translate(-0.38 -21.7)"/><path class="cls-2" d="M249.48,308h13v44.82h-13Zm18.37,29.58h-2.61v-10h2.22a21.25,21.25,0,0,0,3.06-.16,3.83,3.83,0,0,0,1.63-.62,2.39,2.39,0,0,0,.71-1.38,13.24,13.24,0,0,0,.18-2.67,16.33,16.33,0,0,0-.18-2.7,2.51,2.51,0,0,0-.71-1.4,2.91,2.91,0,0,0-1.53-.59,26,26,0,0,0-3.16-.14h-2.22v-10h6.7a24.69,24.69,0,0,1,7.48.92,8.56,8.56,0,0,1,6.37,7.16,38.28,38.28,0,0,1,.48,6.7,25.81,25.81,0,0,1-1,8.15,8.68,8.68,0,0,1-4.83,5.15l6.78,16.75H273.54Z" transform="translate(-0.38 -21.7)"/><path class="cls-2" d="M293.38,308h13v44.82h-13Zm18.37,29.58h-2.6v-10h2.22a21.35,21.35,0,0,0,3.06-.16,3.83,3.83,0,0,0,1.63-.62,2.33,2.33,0,0,0,.7-1.38,13.1,13.1,0,0,0,.19-2.67,15.11,15.11,0,0,0-.19-2.7,2.44,2.44,0,0,0-.7-1.4,3,3,0,0,0-1.54-.59,25.73,25.73,0,0,0-3.15-.14h-2.22v-10h6.7a24.74,24.74,0,0,1,7.48.92,8.53,8.53,0,0,1,6.36,7.16,38.28,38.28,0,0,1,.48,6.7,26.16,26.16,0,0,1-1,8.15,8.74,8.74,0,0,1-4.83,5.15l6.77,16.75H317.45Z" transform="translate(-0.38 -21.7)"/><path class="cls-2" d="M347.13,338l-.6-1.31-1.69-3.32-1.63-3.45c-.18-.3-.38-.76-.66-1.37L339.87,323l-7.16-15.06H346L360.15,338v14.74h-13V338Zm8.39-16.16,6.07-13.89h13l-5.08,10.55-2.15,4.44-4.1,8.54-1.62,3.38Z" transform="translate(-0.38 -21.7)"/><path class="cls-2" d="M224,220.92c-6.39,5.4-12.86,10.85-19.89,16.77,4.37,1.19,8.74,2.79,13.25,3.5,14.94,2.38,28.69-.64,40.73-10.06,9.31-7.3,14.11-16.91,14.11-28.83q0-66.83,0-133.62V64.61c-1.38-.07-2.45-.16-3.53-.16-12.31,0-24.61,0-36.92,0a6.42,6.42,0,0,1-5.5-2.31c-4.78-5.6-9.7-11.1-14.8-16.88l11.44-7c8.44-5.17,16.93-10.29,25.33-15.53a4.41,4.41,0,0,1,4.94-.35q21.76,11.19,43.66,22.11c2.31,1.14,3,2.49,3,5q-.11,75.36,0,150.75c0,13.87-3.23,26.75-11.05,38.33a58.65,58.65,0,0,1-22.45,19.88C241.65,271,217,283.57,192.23,296a4.57,4.57,0,0,1-3.52.09C162.42,283.38,136,271,110,257.6,87.35,245.91,75.52,226.44,75.31,201c-.43-50.54-.11-101.11-.16-151.65a3.8,3.8,0,0,1,2.41-3.94c15.58-7.73,31.11-15.6,46.72-23.31a4.64,4.64,0,0,1,3.79,0c14.56,8.42,29,16.95,43.5,25.48a24,24,0,0,1,2.1,1.65c-4.27,4.87-8.32,9.66-12.63,14.26-.7.75-2.35.89-3.56.89-15,.07-30,0-45.06,0h-3.61v4.17c0,40.24.55,80.49-.16,120.71-.46,26.59,18.33,45.95,40.84,51.28,26.88,6.36,54.18-4.19,69-26.86a54.16,54.16,0,0,0,9-30.07q0-54.94,0-109.91c0-3.83,0-3.83,4-3.83,7.92,0,15.81,0,23.73-.06,2.1,0,3,.39,3,2.76-.05,42.36,0,84.68-.05,127,0,12-9.31,21.47-21.78,22.82a44.07,44.07,0,0,1-8.67-.05C226.41,222.32,225.15,221.43,224,220.92Z" transform="translate(-0.38 -21.7)"/><path class="cls-2" d="M176.26,184c-.64,2.9-1.21,5.56-1.81,8.33-.75-.3-1.07-.35-1.1-.44-1.51-6.91-4.14-13.8-4.27-20.73-.53-27.91-.26-55.85-.28-83.76,0-.94.12-1.9.18-2.84l.78-.14c8.63,31,17.28,62,26,93.42,7.32-28.23,14.53-56.08,21.73-83.92.33.07.65.11,1,.18.06.94.16,1.9.18,2.84,0,17.11.5,34.25-.09,51.34-.55,16-2.93,31.92-10.46,46.47-7.59,14.71-19.36,24.34-35.83,27.43-18.26,3.44-37.41-5.37-46-20.73a27.68,27.68,0,0,1-3.68-13.75q0-57.48-.07-115c0-2.13.68-2.77,2.74-2.75,8.9.07,17.83.1,26.73,0,2.58,0,3.15.84,3.15,3.27q-.09,54.95,0,109.89c0,4.21.75,8.17,3.25,11.65a10.44,10.44,0,0,0,13.84,3.16A11.18,11.18,0,0,0,176.26,184Z" transform="translate(-0.38 -21.7)"/></svg>