<?xml version="1.0" encoding="utf-8"?>
<!-- Generator: Adobe Illustrator 24.3.0, SVG Export Plug-In . SVG Version: 6.00 Build 0)  -->
<svg version="1.1" id="Layer_1" xmlns="http://www.w3.org/2000/svg" xmlns:xlink="http://www.w3.org/1999/xlink" x="0px" y="0px"
	 viewBox="0 0 375 375" style="enable-background:new 0 0 375 375;" xml:space="preserve">
<style type="text/css">
	.st0{clip-path:url(#SVGID_4_);fill:#DA1214;}
	.st1{fill:#D5536E;}
	.st2{font-family:'SairaStencilOne-Regular';}
	.st3{font-size:24.9568px;}
	.st4{fill:#FFFFFF;}
</style>
<g>
	<g>
		<defs>
			<rect id="SVGID_1_" width="375" height="375"/>
		</defs>
		<clipPath id="SVGID_2_">
			<use xlink:href="#SVGID_1_"  style="overflow:visible;"/>
		</clipPath>
	</g>
	<g>
		<defs>
			<rect id="SVGID_3_" width="375" height="375"/>
		</defs>
		<use xlink:href="#SVGID_3_"  style="overflow:visible;fill-rule:evenodd;clip-rule:evenodd;fill:#DA1214;"/>
		<clipPath id="SVGID_4_">
			<use xlink:href="#SVGID_3_"  style="overflow:visible;"/>
		</clipPath>
		<rect class="st0" width="375" height="375"/>
	</g>
	<g>
		<defs>
			<rect id="SVGID_5_" width="375" height="375"/>
		</defs>
		<clipPath id="SVGID_6_">
			<use xlink:href="#SVGID_5_"  style="overflow:visible;"/>
		</clipPath>
	</g>
</g>
<text transform="matrix(1 0 0 1 164.7368 223.2012)" class="st1 st2 st3"> </text>
<g>
	<g>
		<g>
			<g>
				<path class="st4" d="M109.16,270.29c-1.08-0.32-1.88-0.84-2.39-1.57c-0.47-0.66-0.77-1.51-0.88-2.53
					c-0.11-1.03-0.17-2.55-0.17-4.59v-10.65h5.7v11.79c0,0.7,0.02,1.38,0.06,2.02c0.04,0.51,0.12,0.88,0.26,1.11
					c0.13,0.23,0.36,0.37,0.68,0.43c0.28,0.08,0.74,0.11,1.37,0.11h0.66c0.15,0,0.32-0.02,0.51-0.06v4.39
					c-0.13,0.02-0.32,0.03-0.57,0.03h-0.6C111.78,270.77,110.24,270.61,109.16,270.29z M116.14,250.95h5.7v10.65
					c0,1.86-0.04,3.27-0.11,4.22c-0.08,0.95-0.29,1.75-0.63,2.39c-0.38,0.74-0.96,1.31-1.74,1.71c-0.78,0.4-1.85,0.66-3.22,0.77
					V250.95z"/>
			</g>
			<g>
				<path class="st4" d="M134.24,264.76c0-0.4-0.03-0.69-0.09-0.87c-0.06-0.18-0.15-0.3-0.28-0.37c-0.13-0.07-0.36-0.12-0.68-0.16
					l-3.5-0.43c-2.07-0.23-3.46-0.9-4.19-2.02c-0.32-0.47-0.54-1.05-0.65-1.74c-0.11-0.68-0.17-1.52-0.17-2.51
					c0-2.11,0.54-3.63,1.62-4.56c0.87-0.76,2.24-1.2,4.1-1.34v5.72c0,0.25,0.01,0.46,0.03,0.63c0.02,0.17,0.06,0.3,0.11,0.4
					c0.06,0.11,0.15,0.2,0.28,0.24c0.13,0.05,0.33,0.08,0.6,0.1l3.93,0.48c0.82,0.11,1.48,0.26,1.99,0.43
					c0.51,0.17,0.95,0.44,1.31,0.8c0.85,0.89,1.28,2.48,1.28,4.76c0,2.41-0.53,4.1-1.59,5.07c-0.47,0.44-1.05,0.75-1.72,0.95
					c-0.67,0.2-1.47,0.33-2.38,0.38V264.76z M127.44,270.51c-0.97-0.09-1.7-0.19-2.19-0.28v-4.16c1.12,0.09,2.4,0.19,3.84,0.28
					c0.91,0.04,1.56,0.06,1.94,0.06c1.03,0,1.7-0.03,2.02-0.08v4.44h-0.31C130.84,270.77,129.07,270.69,127.44,270.51z
					 M135.64,255.14c-0.87-0.04-1.58-0.06-2.11-0.06c-0.68,0-1.33,0.02-1.94,0.06v-4.41h0.71c1.56,0,3.17,0.1,4.84,0.31
					c0.53,0.08,1.13,0.18,1.79,0.31v4.1C138.32,255.38,137.21,255.27,135.64,255.14z"/>
			</g>
			<g>
				<path class="st4" d="M147.31,250.95h0.48l2.25,7.8l-3.27,11.79h-5.7L147.31,250.95z M153.72,267.07h-4.76l1.2-4.38h2.28
					l-3.36-11.73h5.21l6.24,19.59h-5.81L153.72,267.07z"/>
			</g>
			<g>
				<path class="st4" d="M169.83,251.8v-0.85h5.24l8.2,17.43l-0.94,2.16h-3.7L169.83,251.8z M169.83,254.62l5.24,11.16v4.76h-5.24
					V254.62z M185.92,262.31h-0.11l-1.91,4.61l-2.45-5.24l4.47-10.74h5.41v19.59h-5.41V262.31z"/>
			</g>
			<g>
				<path class="st4" d="M199.47,250.95h0.48l2.25,7.8l-3.27,11.79h-5.7L199.47,250.95z M205.88,267.07h-4.76l1.2-4.38h2.28
					l-3.36-11.73h5.21l6.24,19.59h-5.81L205.88,267.07z"/>
			</g>
			<g>
				<path class="st4" d="M214.59,250.95h5.7v19.59h-5.7V250.95z M222.62,263.88h-1.14v-4.36h0.97c0.59,0,1.03-0.02,1.34-0.07
					c0.3-0.05,0.54-0.14,0.71-0.27c0.15-0.13,0.26-0.33,0.31-0.6c0.06-0.27,0.08-0.66,0.08-1.17c0-0.51-0.03-0.91-0.08-1.18
					c-0.06-0.28-0.16-0.48-0.31-0.61c-0.15-0.13-0.38-0.22-0.67-0.26c-0.29-0.04-0.75-0.06-1.38-0.06h-0.97v-4.36h2.93
					c1.35,0,2.44,0.13,3.27,0.4c0.83,0.27,1.48,0.67,1.94,1.22c0.42,0.51,0.7,1.15,0.84,1.91c0.14,0.76,0.21,1.74,0.21,2.93
					c0,1.54-0.14,2.72-0.43,3.56c-0.4,1.06-1.1,1.81-2.11,2.25l2.96,7.32h-5.98L222.62,263.88z"/>
			</g>
			<g>
				<path class="st4" d="M233.78,250.95h5.7v19.59h-5.7V250.95z M241.81,263.88h-1.14v-4.36h0.97c0.59,0,1.03-0.02,1.34-0.07
					c0.3-0.05,0.54-0.14,0.71-0.27c0.15-0.13,0.26-0.33,0.31-0.6c0.06-0.27,0.08-0.66,0.08-1.17c0-0.51-0.03-0.91-0.08-1.18
					c-0.06-0.28-0.16-0.48-0.31-0.61c-0.15-0.13-0.38-0.22-0.67-0.26c-0.29-0.04-0.75-0.06-1.38-0.06h-0.97v-4.36h2.93
					c1.35,0,2.44,0.13,3.27,0.4c0.83,0.27,1.48,0.67,1.94,1.22c0.42,0.51,0.7,1.15,0.84,1.91c0.14,0.76,0.21,1.74,0.21,2.93
					c0,1.54-0.14,2.72-0.43,3.56c-0.4,1.06-1.1,1.81-2.11,2.25l2.96,7.32h-5.98L241.81,263.88z"/>
			</g>
			<g>
				<path class="st4" d="M257.27,264.08l-0.26-0.57l-0.74-1.45l-0.71-1.51c-0.08-0.13-0.17-0.33-0.29-0.6l-1.17-2.42l-3.13-6.58
					h5.81l6.18,13.16v6.44h-5.7V264.08z M260.94,257.02l2.65-6.07h5.7l-2.22,4.61l-0.94,1.94l-1.79,3.73l-0.71,1.48L260.94,257.02z"
					/>
			</g>
		</g>
		<g>
			<g>
				<path class="st4" d="M206.26,206.7c-3.29,2.77-6.62,5.58-10.23,8.63c2.25,0.61,4.5,1.44,6.81,1.8
					c7.68,1.22,14.76-0.33,20.94-5.18c4.79-3.75,7.26-8.69,7.26-14.83c0-22.91,0.01-45.82,0.01-68.72c0-0.66,0-1.31,0-2.09
					c-0.71-0.03-1.26-0.08-1.81-0.08c-6.33,0-12.66-0.02-19,0.02c-1.16,0.01-2.03-0.27-2.82-1.19c-2.46-2.89-4.99-5.71-7.62-8.69
					c2.05-1.26,3.96-2.44,5.88-3.61c4.35-2.66,8.7-5.3,13.03-7.98c0.86-0.54,1.57-0.68,2.54-0.17c7.46,3.83,14.94,7.63,22.45,11.36
					c1.19,0.59,1.57,1.29,1.57,2.59c-0.03,25.84-0.03,51.68,0,77.53c0.01,7.14-1.66,13.76-5.68,19.71
					c-2.97,4.39-6.79,7.82-11.54,10.22c-12.72,6.43-25.42,12.9-38.14,19.31c-0.5,0.25-1.32,0.28-1.81,0.04
					c-13.52-6.55-27.13-12.93-40.47-19.82c-11.65-6.01-17.73-16.02-17.84-29.1c-0.22-25.99-0.06-51.99-0.09-77.99
					c0-1.01,0.32-1.57,1.24-2.02c8.02-3.98,16-8.03,24.02-11.99c0.53-0.26,1.45-0.3,1.95-0.02c7.48,4.33,14.93,8.72,22.37,13.11
					c0.34,0.2,0.63,0.49,1.08,0.85c-2.2,2.51-4.29,4.97-6.49,7.33c-0.36,0.39-1.21,0.46-1.83,0.46c-7.72,0.03-15.44,0.03-23.17,0.03
					c-0.55,0-1.1,0-1.86,0c0,0.84,0,1.49,0,2.14c0.01,20.69,0.28,41.39-0.08,62.08c-0.24,13.68,9.42,23.63,21,26.37
					c13.82,3.28,27.86-2.15,35.5-13.81c3.06-4.68,4.63-9.86,4.64-15.46c0.02-18.84,0-37.68,0-56.52c0-1.96,0-1.96,2.04-1.96
					c4.07-0.01,8.13,0.02,12.2-0.04c1.08-0.02,1.56,0.2,1.56,1.42c-0.03,21.77,0.03,43.55-0.03,65.32
					c-0.02,6.15-4.79,11.03-11.21,11.73c-1.47,0.16-2.98,0.1-4.46-0.02C207.52,207.41,206.87,206.95,206.26,206.7z"/>
				<path class="st4" d="M181.72,187.71c-0.33,1.5-0.62,2.86-0.93,4.28c-0.39-0.15-0.55-0.17-0.56-0.23
					c-0.78-3.55-2.14-7.09-2.2-10.66c-0.27-14.36-0.14-28.72-0.14-43.08c0-0.49,0.06-0.97,0.1-1.46c0.13-0.02,0.27-0.05,0.4-0.07
					c4.44,15.94,8.88,31.88,13.39,48.04c3.76-14.52,7.47-28.84,11.17-43.16c0.16,0.03,0.33,0.06,0.49,0.09
					c0.03,0.49,0.09,0.97,0.09,1.46c0.01,8.8,0.26,17.61-0.05,26.4c-0.29,8.25-1.51,16.42-5.38,23.9
					c-3.91,7.57-9.96,12.52-18.43,14.11c-9.38,1.76-19.24-2.76-23.66-10.66c-1.23-2.2-1.9-4.55-1.9-7.07
					c-0.01-19.71,0-39.43-0.04-59.14c0-1.1,0.35-1.42,1.41-1.42c4.58,0.03,9.16,0.05,13.74-0.03c1.32-0.02,1.62,0.43,1.62,1.68
					c-0.03,18.84-0.01,37.68-0.02,56.51c0,2.17,0.39,4.2,1.67,5.99c1.68,2.35,4.7,3.03,7.12,1.62
					C181.91,193.47,182.88,190.35,181.72,187.71z"/>
			</g>
		</g>
	</g>
</g>
</svg>
